<?xml version="1.0" standalone="no"?>
<!DOCTYPE svg PUBLIC "-//W3C//DTD SVG 20010904//EN"
 "http://www.w3.org/TR/2001/REC-SVG-20010904/DTD/svg10.dtd">
<svg version="1.0" xmlns="http://www.w3.org/2000/svg"
 width="1500.000000pt" height="1500.000000pt" viewBox="0 0 1500.000000 1500.000000"
 preserveAspectRatio="xMidYMid meet">

<g transform="translate(0.000000,1500.000000) scale(0.100000,-0.100000)"
fill="#000000" stroke="none">
<path d="M3610 14345 c-595 -54 -1196 -298 -1699 -687 -136 -106 -422 -391
-535 -533 -344 -434 -581 -956 -670 -1480 -53 -312 -50 -30 -54 -4030 -2
-2596 0 -3741 8 -3862 42 -662 256 -1260 634 -1771 345 -466 818 -846 1331
-1068 324 -140 681 -233 1020 -264 153 -14 7559 -14 7710 0 1054 98 1988 690
2531 1602 238 401 381 825 441 1308 17 137 18 349 18 3935 0 4075 2 3878 -51
4160 -139 728 -461 1315 -1005 1830 -513 486 -1241 809 -1948 865 -207 16
-7552 11 -7731 -5z m4860 -3830 l0 -1205 388 0 c213 0 431 -5 484 -10 191 -19
352 -93 483 -225 151 -152 207 -287 235 -570 6 -60 24 -217 40 -348 17 -131
30 -256 30 -277 l0 -40 -830 0 -830 0 0 -999 c0 -1079 1 -1092 54 -1233 28
-76 127 -245 193 -331 143 -185 305 -291 512 -332 149 -31 404 -13 589 41 l22
6 0 -686 0 -686 -32 -21 c-70 -43 -318 -159 -418 -194 -431 -150 -891 -170
-1334 -55 -807 208 -1445 863 -1639 1685 -61 255 -60 238 -64 1578 l-4 1227
-411 0 c-449 0 -477 3 -604 60 -210 95 -388 305 -444 526 -18 69 -20 112 -20
420 l0 342 93 6 c123 9 508 23 977 36 212 7 391 14 398 16 11 3 13 122 12 631
-2 522 1 641 13 703 83 416 390 770 828 955 219 92 422 133 779 155 96 6 209
15 250 19 41 5 114 9 163 10 l87 1 0 -1205z"/>
</g>
</svg>
